<svg version="1.0" xmlns="http://www.w3.org/2000/svg" width="512.000000pt" height="512.000000pt" viewBox="0 0 512.000000 512.000000" preserveAspectRatio="xMidYMid meet">

<g transform="translate(0.000000,512.000000) scale(0.100000,-0.100000)" fill="#ffffff" stroke="none">
<path d="M1870 4124 c-181 -20 -241 -29 -346 -50 -229 -45 -294 -84 -294 -174 0 -40 18 -76 49 -97 23 -16 69 -19 476 -24 442 -7 576 -14 825 -45 508 -63 1035 -219 1441 -426 267 -135 442 -260 606 -431 147 -155 226 -303 240 -455 l6 -67 -60 75 c-296 372 -1001 744 -1788 943 -977 247 -2234 273 -2694 55 -189 -90 -228 -240 -87 -337 174 -120 620 -203 1290 -241 222 -12 503 -13 490 -1 -5 5 -61 14 -124 20 -670 67 -1284 186 -1507 292 -73 35 -93 61 -68 89 41 45 222 94 455 122 138 17 746 17 940 0 460 -40 906 -113 1283 -208 877 -222 1592 -616 1782 -981 l27 -53 -36 -48 c-92 -126 -250 -250 -466 -366 -132 -71 -160 -100 -160 -162 0 -86 61 -132 157 -118 134 19 339 107 457 196 172 130 241 323 189 533 -15 61 -19 101 -15 172 11 218 -82 408 -305 624 -326 315 -890 600 -1528 772 -320 87 -546 128 -980 181 -262 32 -268 33 -200 41 103 12 707 -2 885 -19 653 -66 1162 -194 1585 -401 227 -111 360 -203 487 -339 78 -83 74 -50 -7 50 -298 374 -1055 705 -1880 823 -303 44 -426 53 -760 56 -181 2 -346 1 -365 -1z m2925 -2229 c-40 -83 -137 -165 -270 -230 -98 -48 -169 -77 -155 -62 3 2 50 35 104 71 135 92 238 177 294 245 54 66 66 55 27 -24z" fill="#ffffff"/>
<path d="M1454 2566 c-85 -20 -153 -56 -203 -111 -66 -72 -85 -123 -85 -230 0 -103 14 -142 69 -204 50 -55 114 -83 290 -126 281 -68 320 -88 320 -167 0 -78 -90 -128 -230 -128 -130 0 -213 43 -236 121 l-12 39 -113 0 -114 0 6 -47 c24 -193 206 -313 472 -313 200 1 345 70 417 201 28 50 30 62 30 154 0 84 -4 107 -22 140 -53 99 -121 135 -382 200 -243 61 -281 81 -281 150 0 73 70 125 181 133 125 9 229 -45 246 -129 l6 -29 114 0 114 0 -6 38 c-25 146 -108 242 -253 293 -75 27 -243 34 -328 15z" fill="#ffffff"/>
<path d="M160 1991 l0 -561 115 0 115 0 0 204 0 204 188 4 c202 5 248 15 332 73 98 68 139 281 84 440 -23 67 -93 135 -170 166 -57 23 -71 24 -361 27 l-303 3 0 -560z m553 346 c45 -29 67 -75 67 -137 0 -75 -24 -119 -80 -147 -39 -20 -59 -23 -177 -23 l-133 0 0 166 0 166 148 -4 c122 -2 153 -6 175 -21z" fill="#ffffff"/>
<path d="M2250 1990 l0 -560 115 0 115 0 0 240 0 240 250 0 250 0 0 95 0 95 -250 0 -250 0 0 130 0 130 285 0 285 0 0 95 0 95 -400 0 -400 0 0 -560z" fill="#ffffff"/>
<path d="M3130 2455 l0 -95 165 0 165 0 0 -465 0 -465 120 0 120 0 0 465 0 465 170 0 170 0 0 95 0 95 -455 0 -455 0 0 -95z" fill="#ffffff"/>
</g>
</svg>