<?xml version="1.0" encoding="UTF-8" standalone="no"?>
<svg
   version="1.0"
   width="512.000000pt"
   height="512.000000pt"
   viewBox="0 0 512.000000 512.000000"
   preserveAspectRatio="xMidYMid meet"
   id="svg14"
   sodipodi:docname="PSFT-logo-dark.svg"
   inkscape:version="1.1.2 (0a00cf5339, 2022-02-04)"
   xmlns:inkscape="http://www.inkscape.org/namespaces/inkscape"
   xmlns:sodipodi="http://sodipodi.sourceforge.net/DTD/sodipodi-0.dtd"
   xmlns="http://www.w3.org/2000/svg"
   xmlns:svg="http://www.w3.org/2000/svg">
  <defs
     id="defs18" />
  <sodipodi:namedview
     id="namedview16"
     pagecolor="#ffffff"
     bordercolor="#666666"
     borderopacity="1.0"
     inkscape:pageshadow="2"
     inkscape:pageopacity="0.0"
     inkscape:pagecheckerboard="0"
     inkscape:document-units="pt"
     showgrid="false"
     inkscape:zoom="1.2758789"
     inkscape:cx="340.94145"
     inkscape:cy="341.72522"
     inkscape:window-width="2560"
     inkscape:window-height="1368"
     inkscape:window-x="1920"
     inkscape:window-y="0"
     inkscape:window-maximized="1"
     inkscape:current-layer="svg14" />
  <rect
     style="fill:#000000;stroke-width:0.75"
     id="rect848"
     width="510.52771"
     height="444.55524"
     x="1.6017509"
     y="24.731613" />
  <g
     transform="matrix(0.1,0,0,-0.1,0,512)"
     fill="#ffffff"
     stroke="none"
     id="g12"
     style="fill:#ffffff">
    <path
       d="m 1870,4124 c -181,-20 -241,-29 -346,-50 -229,-45 -294,-84 -294,-174 0,-40 18,-76 49,-97 23,-16 69,-19 476,-24 442,-7 576,-14 825,-45 508,-63 1035,-219 1441,-426 267,-135 442,-260 606,-431 147,-155 226,-303 240,-455 l 6,-67 -60,75 c -296,372 -1001,744 -1788,943 -977,247 -2234,273 -2694,55 -189,-90 -228,-240 -87,-337 174,-120 620,-203 1290,-241 222,-12 503,-13 490,-1 -5,5 -61,14 -124,20 -670,67 -1284,186 -1507,292 -73,35 -93,61 -68,89 41,45 222,94 455,122 138,17 746,17 940,0 460,-40 906,-113 1283,-208 877,-222 1592,-616 1782,-981 l 27,-53 -36,-48 c -92,-126 -250,-250 -466,-366 -132,-71 -160,-100 -160,-162 0,-86 61,-132 157,-118 134,19 339,107 457,196 172,130 241,323 189,533 -15,61 -19,101 -15,172 11,218 -82,408 -305,624 -326,315 -890,600 -1528,772 -320,87 -546,128 -980,181 -262,32 -268,33 -200,41 103,12 707,-2 885,-19 653,-66 1162,-194 1585,-401 227,-111 360,-203 487,-339 78,-83 74,-50 -7,50 -298,374 -1055,705 -1880,823 -303,44 -426,53 -760,56 -181,2 -346,1 -365,-1 z M 4795,1895 c -40,-83 -137,-165 -270,-230 -98,-48 -169,-77 -155,-62 3,2 50,35 104,71 135,92 238,177 294,245 54,66 66,55 27,-24 z"
       fill="#ffffff"
       id="path2"
       style="fill:#ffffff" />
    <path
       d="m 1454,2566 c -85,-20 -153,-56 -203,-111 -66,-72 -85,-123 -85,-230 0,-103 14,-142 69,-204 50,-55 114,-83 290,-126 281,-68 320,-88 320,-167 0,-78 -90,-128 -230,-128 -130,0 -213,43 -236,121 l -12,39 h -113 -114 l 6,-47 c 24,-193 206,-313 472,-313 200,1 345,70 417,201 28,50 30,62 30,154 0,84 -4,107 -22,140 -53,99 -121,135 -382,200 -243,61 -281,81 -281,150 0,73 70,125 181,133 125,9 229,-45 246,-129 l 6,-29 h 114 114 l -6,38 c -25,146 -108,242 -253,293 -75,27 -243,34 -328,15 z"
       fill="#ffffff"
       id="path4"
       style="fill:#ffffff" />
    <path
       d="m 160,1991 v -561 h 115 115 v 204 204 l 188,4 c 202,5 248,15 332,73 98,68 139,281 84,440 -23,67 -93,135 -170,166 -57,23 -71,24 -361,27 l -303,3 z m 553,346 c 45,-29 67,-75 67,-137 0,-75 -24,-119 -80,-147 -39,-20 -59,-23 -177,-23 H 390 v 166 166 l 148,-4 c 122,-2 153,-6 175,-21 z"
       fill="#ffffff"
       id="path6"
       style="fill:#ffffff" />
    <path
       d="m 2250,1990 v -560 h 115 115 v 240 240 h 250 250 v 95 95 h -250 -250 v 130 130 h 285 285 v 95 95 h -400 -400 z"
       fill="#ffffff"
       id="path8"
       style="fill:#ffffff" />
    <path
       d="m 3130,2455 v -95 h 165 165 v -465 -465 h 120 120 v 465 465 h 170 170 v 95 95 h -455 -455 z"
       fill="#ffffff"
       id="path10"
       style="fill:#ffffff" />
  </g>
</svg>
